<?xml version="1.0"?>
<svg xmlns="http://www.w3.org/2000/svg" id="Capa_1" enable-background="new 0 0 512 512" height="512px" viewBox="0 0 512 512" width="512px"><g><g><g><path d="m441.87 0h-371.74c-4.142 0-7.5 3.357-7.5 7.5v392.18c0 4.143 3.358 7.5 7.5 7.5s7.5-3.357 7.5-7.5v-384.68h356.74v98.28c0 4.143 3.358 7.5 7.5 7.5s7.5-3.357 7.5-7.5v-105.78c0-4.143-3.358-7.5-7.5-7.5z" data-original="#000000" class="active-path" data-old_color="#000000" fill="#0045FF"/><path d="m441.87 140.78c-4.142 0-7.5 3.357-7.5 7.5v247.703h-93.517c-4.142 0-7.5 3.357-7.5 7.5v93.517h-255.723v-62.32c0-4.143-3.358-7.5-7.5-7.5s-7.5 3.357-7.5 7.5v69.82c0 4.143 3.358 7.5 7.5 7.5h270.72c1.989 0 3.897-.79 5.303-2.196l101.02-101.02c1.407-1.407 2.197-3.314 2.197-5.304v-255.2c0-4.142-3.358-7.5-7.5-7.5zm-18.109 270.203-75.407 75.407v-75.407z" data-original="#000000" class="active-path" data-old_color="#000000" fill="#0045FF"/><path d="m173.748 161.045v34.346c0 4.143 3.358 7.5 7.5 7.5h149.504c4.142 0 7.5-3.357 7.5-7.5v-34.346c0-26.278-21.269-47.673-47.494-47.896 8.14-8.591 13.149-20.177 13.149-32.918 0-26.416-21.491-47.906-47.907-47.906s-47.907 21.49-47.907 47.906c0 12.741 5.009 24.327 13.149 32.918-26.225.223-47.494 21.618-47.494 47.896zm82.252-113.72c18.145 0 32.907 14.762 32.907 32.906 0 18.146-14.762 32.907-32.907 32.907s-32.907-14.762-32.907-32.907c0-18.144 14.762-32.906 32.907-32.906zm-67.252 113.72c0-18.145 14.762-32.906 32.906-32.906h68.691c18.145 0 32.906 14.762 32.906 32.906v26.846h-27.427v-12.704c0-4.143-3.358-7.5-7.5-7.5s-7.5 3.357-7.5 7.5v12.704h-49.65v-12.704c0-4.143-3.358-7.5-7.5-7.5s-7.5 3.357-7.5 7.5v12.704h-27.427v-26.846z" data-original="#000000" class="active-path" data-old_color="#000000" fill="#0045FF"/><path d="m157.59 227.72v32.32c0 4.143 3.358 7.5 7.5 7.5h34.5c4.142 0 7.5-3.357 7.5-7.5s-3.358-7.5-7.5-7.5h-27v-17.32h166.82v17.32h-104.82c-4.142 0-7.5 3.357-7.5 7.5s3.358 7.5 7.5 7.5h112.32c4.142 0 7.5-3.357 7.5-7.5v-32.32c0-4.143-3.358-7.5-7.5-7.5h-181.82c-4.142 0-7.5 3.357-7.5 7.5z" data-original="#000000" class="active-path" data-old_color="#000000" fill="#0045FF"/><path d="m409.545 284.866h-232.337c-4.142 0-7.5 3.357-7.5 7.5s3.358 7.5 7.5 7.5h232.337c4.142 0 7.5-3.357 7.5-7.5s-3.358-7.5-7.5-7.5z" data-original="#000000" class="active-path" data-old_color="#000000" fill="#0045FF"/><path d="m102.455 299.866h42.427c4.142 0 7.5-3.357 7.5-7.5s-3.358-7.5-7.5-7.5h-42.427c-4.142 0-7.5 3.357-7.5 7.5s3.358 7.5 7.5 7.5z" data-original="#000000" class="active-path" data-old_color="#000000" fill="#0045FF"/><path d="m102.455 332.191h42.427c4.142 0 7.5-3.357 7.5-7.5s-3.358-7.5-7.5-7.5h-42.427c-4.142 0-7.5 3.357-7.5 7.5s3.358 7.5 7.5 7.5z" data-original="#000000" class="active-path" data-old_color="#000000" fill="#0045FF"/><path d="m409.545 317.191h-232.337c-4.142 0-7.5 3.357-7.5 7.5s3.358 7.5 7.5 7.5h232.337c4.142 0 7.5-3.357 7.5-7.5s-3.358-7.5-7.5-7.5z" data-original="#000000" class="active-path" data-old_color="#000000" fill="#0045FF"/><path d="m102.455 364.517h42.427c4.142 0 7.5-3.357 7.5-7.5s-3.358-7.5-7.5-7.5h-42.427c-4.142 0-7.5 3.357-7.5 7.5s3.358 7.5 7.5 7.5z" data-original="#000000" class="active-path" data-old_color="#000000" fill="#0045FF"/><path d="m409.545 349.517h-232.337c-4.142 0-7.5 3.357-7.5 7.5s3.358 7.5 7.5 7.5h232.337c4.142 0 7.5-3.357 7.5-7.5s-3.358-7.5-7.5-7.5z" data-original="#000000" class="active-path" data-old_color="#000000" fill="#0045FF"/><path d="m102.455 410.983h80.813c4.142 0 7.5-3.357 7.5-7.5s-3.358-7.5-7.5-7.5h-80.813c-4.142 0-7.5 3.357-7.5 7.5s3.358 7.5 7.5 7.5z" data-original="#000000" class="active-path" data-old_color="#000000" fill="#0045FF"/><path d="m112.557 442.451c-4.142 0-7.5 3.357-7.5 7.5s3.358 7.5 7.5 7.5h60.609c4.142 0 7.5-3.357 7.5-7.5s-3.358-7.5-7.5-7.5z" data-original="#000000" class="active-path" data-old_color="#000000" fill="#0045FF"/></g></g></g> </svg>
